{
  "accessors": [
    {
      "bufferView": 2,
      "componentType": 5126,
      "count": 14656,
      "max": [
        0.930728018283844,
        -0.03071480058133602,
        0.9464709758758545
      ],
      "min": [
        -0.35833001136779785,
        -0.28714001178741455,
        -0.8771100044250488
      ],
      "type": "VEC3"
    },
    {
      "bufferView": 2,
      "byteOffset": 175872,
      "componentType": 5126,
      "count": 14656,
      "max": [
        1.0,
        1.0,
        1.0
      ],
      "min": [
        -1.0,
        -1.0,
        -1.0
      ],
      "type": "VEC3"
    },
    {
      "bufferView": 3,
      "componentType": 5126,
      "count": 14656,
      "max": [
        1.0,
        1.0,
        1.0,
        1.0
      ],
      "min": [
        -1.0,
        -1.0,
        -1.0,
        -1.0
      ],
      "type": "VEC4"
    },
    {
      "bufferView": 1,
      "componentType": 5126,
      "count": 14656,
      "max": [
        0.9765629768371582,
        0.9455339908599854
      ],
      "min": [
        0.0,
        0.0
      ],
      "type": "VEC2"
    },
    {
      "bufferView": 0,
      "componentType": 5125,
      "count": 33432,
      "type": "SCALAR"
    },
    {
      "bufferView": 2,
      "byteOffset": 351744,
      "componentType": 5126,
      "count": 1968,
      "max": [
        -0.34557101130485535,
        0.22046199440956116,
        0.8278279900550842
      ],
      "min": [
        -0.9324780106544495,
        -0.31381699442863464,
        0.1043580025434494
      ],
      "type": "VEC3"
    },
    {
      "bufferView": 2,
      "byteOffset": 375360,
      "componentType": 5126,
      "count": 1968,
      "max": [
        0.999950110912323,
        0.9999865889549255,
        0.9999417662620544
      ],
      "min": [
        -0.999950110912323,
        -0.864870548248291,
        -0.9999417662620544
      ],
      "type": "VEC3"
    },
    {
      "bufferView": 3,
      "byteOffset": 234496,
      "componentType": 5126,
      "count": 1968,
      "max": [
        0.9993063807487488,
        0.9999871850013733,
        0.9993427991867065,
        1.0
      ],
      "min": [
        -0.9999512434005737,
        -0.9999914765357971,
        -0.9999417066574097,
        -1.0
      ],
      "type": "VEC4"
    },
    {
      "bufferView": 1,
      "byteOffset": 117248,
      "componentType": 5126,
      "count": 1968,
      "max": [
        0.984375,
        0.9834470152854919
      ],
      "min": [
        0.015625,
        0.015625
      ],
      "type": "VEC2"
    },
    {
      "bufferView": 0,
      "byteOffset": 133728,
      "componentType": 5125,
      "count": 5796,
      "type": "SCALAR"
    },
    {
      "bufferView": 2,
      "byteOffset": 398976,
      "componentType": 5126,
      "count": 1457,
      "max": [
        0.9324769973754883,
        0.0014142399886623025,
        1.0
      ],
      "min": [
        -0.44066300988197327,
        -0.31041499972343445,
        0.026973500847816467
      ],
      "type": "VEC3"
    },
    {
      "bufferView": 2,
      "byteOffset": 416460,
      "componentType": 5126,
      "count": 1457,
      "max": [
        1.0,
        1.0,
        1.0
      ],
      "min": [
        -1.0,
        -1.0,
        -1.0
      ],
      "type": "VEC3"
    },
    {
      "bufferView": 3,
      "byteOffset": 265984,
      "componentType": 5126,
      "count": 1457,
      "max": [
        1.0,
        1.0,
        1.0,
        1.0
      ],
      "min": [
        -1.0,
        -1.0,
        -1.0,
        1.0
      ],
      "type": "VEC4"
    },
    {
      "bufferView": 1,
      "byteOffset": 132992,
      "componentType": 5126,
      "count": 1457,
      "max": [
        0.9940789937973022,
        0.9848139882087708
      ],
      "min": [
        0.00585938012227416,
        0.00585938012227416
      ],
      "type": "VEC2"
    },
    {
      "bufferView": 0,
      "byteOffset": 156912,
      "componentType": 5125,
      "count": 2907,
      "type": "SCALAR"
    },
    {
      "bufferView": 2,
      "byteOffset": 433944,
      "componentType": 5126,
      "count": 996,
      "max": [
        0.628462016582489,
        -0.010077700018882751,
        0.0818542018532753
      ],
      "min": [
        -0.4133929908275604,
        -0.30943500995635986,
        -1.0
      ],
      "type": "VEC3"
    },
    {
      "bufferView": 2,
      "byteOffset": 445896,
      "componentType": 5126,
      "count": 996,
      "max": [
        1.0,
        1.0,
        1.0
      ],
      "min": [
        -1.0,
        -1.0,
        -1.0
      ],
      "type": "VEC3"
    },
    {
      "bufferView": 3,
      "byteOffset": 289296,
      "componentType": 5126,
      "count": 996,
      "max": [
        1.0,
        1.0,
        1.0,
        1.0
      ],
      "min": [
        -1.0,
        -1.0,
        -1.0,
        1.0
      ],
      "type": "VEC4"
    },
    {
      "bufferView": 1,
      "byteOffset": 144648,
      "componentType": 5126,
      "count": 996,
      "max": [
        0.9882810115814209,
        0.9583569765090942
      ],
      "min": [
        0.01171880029141903,
        0.01171880029141903
      ],
      "type": "VEC2"
    },
    {
      "bufferView": 0,
      "byteOffset": 168540,
      "componentType": 5125,
      "count": 2292,
      "type": "SCALAR"
    },
    {
      "bufferView": 2,
      "byteOffset": 457848,
      "componentType": 5126,
      "count": 1948,
      "max": [
        0.7565699815750122,
        0.31381699442863464,
        0.9269999861717224
      ],
      "min": [
        -0.42677000164985657,
        -0.28944799304008484,
        -0.8921549916267395
      ],
      "type": "VEC3"
    },
    {
      "bufferView": 2,
      "byteOffset": 481224,
      "componentType": 5126,
      "count": 1948,
      "max": [
        1.0,
        1.0,
        1.0
      ],
      "min": [
        -1.0,
        -1.0,
        -1.0
      ],
      "type": "VEC3"
    },
    {
      "bufferView": 3,
      "byteOffset": 305232,
      "componentType": 5126,
      "count": 1948,
      "max": [
        1.0,
        1.0,
        1.0,
        1.0
      ],
      "min": [
        -1.0,
        -1.0,
        -1.0,
        1.0
      ],
      "type": "VEC4"
    },
    {
      "bufferView": 1,
      "byteOffset": 152616,
      "componentType": 5126,
      "count": 1948,
      "max": [
        0.9958860278129578,
        0.995123028755188
      ],
      "min": [
        0.009232999756932259,
        0.005054399836808443
      ],
      "type": "VEC2"
    },
    {
      "bufferView": 0,
      "byteOffset": 177708,
      "componentType": 5125,
      "count": 3282,
      "type": "SCALAR"
    },
    {
      "bufferView": 2,
      "byteOffset": 504600,
      "componentType": 5126,
      "count": 307,
      "max": [
        0.8120269775390625,
        -0.21660900115966797,
        0.9481649994850159
      ],
      "min": [
        -0.35882601141929626,
        -0.28800898790359497,
        0.09579599648714066
      ],
      "type": "VEC3"
    },
    {
      "bufferView": 2,
      "byteOffset": 508284,
      "componentType": 5126,
      "count": 307,
      "max": [
        1.0,
        1.0,
        1.0
      ],
      "min": [
        -1.0,
        -1.0,
        -1.0
      ],
      "type": "VEC3"
    },
    {
      "bufferView": 3,
      "byteOffset": 336400,
      "componentType": 5126,
      "count": 307,
      "max": [
        1.0,
        1.0,
        1.0,
        1.0
      ],
      "min": [
        -1.0,
        -1.0,
        -1.0,
        1.0
      ],
      "type": "VEC4"
    },
    {
      "bufferView": 1,
      "byteOffset": 168200,
      "componentType": 5126,
      "count": 307,
      "max": [
        0.9797689914703369,
        0.9594129920005798
      ],
      "min": [
        0.00585938012227416,
        0.00585938012227416
      ],
      "type": "VEC2"
    },
    {
      "bufferView": 0,
      "byteOffset": 190836,
      "componentType": 5125,
      "count": 648,
      "type": "SCALAR"
    },
    {
      "bufferView": 2,
      "byteOffset": 511968,
      "componentType": 5126,
      "count": 791,
      "max": [
        0.7540299892425537,
        -0.065522201359272,
        0.8635939955711365
      ],
      "min": [
        -0.3575989902019501,
        -0.28810998797416687,
        0.0823398008942604
      ],
      "type": "VEC3"
    },
    {
      "bufferView": 2,
      "byteOffset": 521460,
      "componentType": 5126,
      "count": 791,
      "max": [
        1.0,
        1.0,
        1.0
      ],
      "min": [
        -1.0,
        -1.0,
        -1.0
      ],
      "type": "VEC3"
    },
    {
      "bufferView": 3,
      "byteOffset": 341312,
      "componentType": 5126,
      "count": 791,
      "max": [
        1.0,
        1.0,
        1.0,
        1.0
      ],
      "min": [
        -1.0,
        -1.0,
        -1.0,
        -1.0
      ],
      "type": "VEC4"
    },
    {
      "bufferView": 1,
      "byteOffset": 170656,
      "componentType": 5126,
      "count": 791,
      "max": [
        0.9941409826278687,
        0.9594359993934631
      ],
      "min": [
        0.00585938012227416,
        0.00585938012227416
      ],
      "type": "VEC2"
    },
    {
      "bufferView": 0,
      "byteOffset": 193428,
      "componentType": 5125,
      "count": 1935,
      "type": "SCALAR"
    },
    {
      "bufferView": 2,
      "byteOffset": 530952,
      "componentType": 5126,
      "count": 330,
      "max": [
        0.751567006111145,
        -0.015692800283432007,
        0.8708480000495911
      ],
      "min": [
        -0.3883169889450073,
        -0.09023889899253845,
        0.09116440266370773
      ],
      "type": "VEC3"
    },
    {
      "bufferView": 2,
      "byteOffset": 534912,
      "componentType": 5126,
      "count": 330,
      "max": [
        1.0,
        1.0,
        1.0
      ],
      "min": [
        -1.0,
        -1.0,
        -1.0
      ],
      "type": "VEC3"
    },
    {
      "bufferView": 3,
      "byteOffset": 353968,
      "componentType": 5126,
      "count": 330,
      "max": [
        1.0,
        1.0,
        1.0,
        1.0
      ],
      "min": [
        -1.0,
        -1.0,
        -1.0,
        1.0
      ],
      "type": "VEC4"
    },
    {
      "bufferView": 1,
      "byteOffset": 176984,
      "componentType": 5126,
      "count": 330,
      "max": [
        0.9936710000038147,
        0.9321579933166504
      ],
      "min": [
        0.00585938012227416,
        0.00585938012227416
      ],
      "type": "VEC2"
    },
    {
      "bufferView": 0,
      "byteOffset": 201168,
      "componentType": 5125,
      "count": 753,
      "type": "SCALAR"
    },
    {
      "bufferView": 2,
      "byteOffset": 538872,
      "componentType": 5126,
      "count": 14682,
      "max": [
        0.7406190037727356,
        0.05187790095806122,
        0.8416680097579956
      ],
      "min": [
        -0.3731429874897003,
        -0.02869570069015026,
        0.7897899746894836
      ],
      "type": "VEC3"
    },
    {
      "bufferView": 2,
      "byteOffset": 715056,
      "componentType": 5126,
      "count": 14682,
      "max": [
        1.0,
        1.0,
        1.0
      ],
      "min": [
        -1.0,
        -1.0,
        -1.0
      ],
      "type": "VEC3"
    },
    {
      "bufferView": 3,
      "byteOffset": 359248,
      "componentType": 5126,
      "count": 14682,
      "max": [
        1.0,
        1.0,
        1.0,
        1.0
      ],
      "min": [
        -1.0,
        -1.0,
        -1.0,
        -1.0
      ],
      "type": "VEC4"
    },
    {
      "bufferView": 1,
      "byteOffset": 179624,
      "componentType": 5126,
      "count": 14682,
      "max": [
        0.9587249755859375,
        0.9584190249443054
      ],
      "min": [
        0.0234375,
        0.0234375
      ],
      "type": "VEC2"
    },
    {
      "bufferView": 0,
      "byteOffset": 204180,
      "componentType": 5125,
      "count": 44868,
      "type": "SCALAR"
    },
    {
      "bufferView": 2,
      "byteOffset": 891240,
      "componentType": 5126,
      "count": 648,
      "max": [
        0.5686299800872803,
        -0.19841399788856506,
        -0.5777260065078735
      ],
      "min": [
        -0.2540169954299927,
        -0.2715969979763031,
        -0.8932740092277527
      ],
      "type": "VEC3"
    },
    {
      "bufferView": 2,
      "byteOffset": 899016,
      "componentType": 5126,
      "count": 648,
      "max": [
        1.0,
        1.0,
        1.0
      ],
      "min": [
        -1.0,
        -1.0,
        -1.0
      ],
      "type": "VEC3"
    },
    {
      "bufferView": 3,
      "byteOffset": 594160,
      "componentType": 5126,
      "count": 648,
      "max": [
        1.0,
        1.0,
        0.999801754951477,
        1.0
      ],
      "min": [
        -1.0,
        -1.0,
        -0.999801754951477,
        1.0
      ],
      "type": "VEC4"
    },
    {
      "bufferView": 1,
      "byteOffset": 297080,
      "componentType": 5126,
      "count": 648,
      "max": [
        0.7186300158500671,
        0.9854429960250854
      ],
      "min": [
        0.010278400033712387,
        0.002427099971100688
      ],
      "type": "VEC2"
    },
    {
      "bufferView": 0,
      "byteOffset": 383652,
      "componentType": 5125,
      "count": 972,
      "type": "SCALAR"
    },
    {
      "bufferView": 2,
      "byteOffset": 906792,
      "componentType": 5126,
      "count": 648,
      "max": [
        0.5686299800872803,
        -0.17481599748134613,
        0.8558869957923889
      ],
      "min": [
        -0.2540169954299927,
        -0.26939699053764343,
        0.584201991558075
      ],
      "type": "VEC3"
    },
    {
      "bufferView": 2,
      "byteOffset": 914568,
      "componentType": 5126,
      "count": 648,
      "max": [
        0.9994773864746094,
        1.0,
        1.0
      ],
      "min": [
        -0.9994773864746094,
        -1.0,
        -1.0
      ],
      "type": "VEC3"
    },
    {
      "bufferView": 3,
      "byteOffset": 604528,
      "componentType": 5126,
      "count": 648,
      "max": [
        0.9994766116142273,
        1.0,
        1.0,
        1.0
      ],
      "min": [
        -0.9994765520095825,
        -1.0,
        -1.0,
        1.0
      ],
      "type": "VEC4"
    },
    {
      "bufferView": 1,
      "byteOffset": 302264,
      "componentType": 5126,
      "count": 648,
      "max": [
        0.718629002571106,
        0.9854419827461243
      ],
      "min": [
        0.010279499925673008,
        0.0024275300092995167
      ],
      "type": "VEC2"
    },
    {
      "bufferView": 0,
      "byteOffset": 387540,
      "componentType": 5125,
      "count": 972,
      "type": "SCALAR"
    },
    {
      "bufferView": 2,
      "byteOffset": 922344,
      "componentType": 5126,
      "count": 20,
      "max": [
        0.5835130214691162,
        -0.16807499527931213,
        -0.6212369799613953
      ],
      "min": [
        -0.36970698833465576,
        -0.17539100348949432,
        -0.7473869919776917
      ],
      "type": "VEC3"
    },
    {
      "bufferView": 2,
      "byteOffset": 922584,
      "componentType": 5126,
      "count": 20,
      "max": [
        1.0,
        0.0,
        0.0
      ],
      "min": [
        -1.0,
        0.0,
        -1.0
      ],
      "type": "VEC3"
    },
    {
      "bufferView": 3,
      "byteOffset": 614896,
      "componentType": 5126,
      "count": 20,
      "max": [
        0.0,
        1.0,
        0.0,
        1.0
      ],
      "min": [
        0.0,
        -1.0,
        0.0,
        1.0
      ],
      "type": "VEC4"
    },
    {
      "bufferView": 1,
      "byteOffset": 307448,
      "componentType": 5126,
      "count": 20,
      "max": [
        0.9736340045928955,
        0.564175009727478
      ],
      "min": [
        0.4032280147075653,
        0.005213689990341663
      ],
      "type": "VEC2"
    },
    {
      "bufferView": 0,
      "byteOffset": 391428,
      "componentType": 5125,
      "count": 30,
      "type": "SCALAR"
    }
  ],
  "asset": {
    "extras": {
      "author": "AndrewDW (https://sketchfab.com/AndrewDW)",
      "license": "CC-BY-ND-4.0 (http://creativecommons.org/licenses/by-nd/4.0/)",
      "source": "https://sketchfab.com/3d-models/pripyat-palace-of-culture-energetik-rework-d45297836eff40b697acd528825877e9",
      "title": "Pripyat Palace of Culture \"Energetik\" Rework"
    },
    "generator": "Sketchfab-12.65.0",
    "version": "2.0"
  },
  "bufferViews": [
    {
      "buffer": 0,
      "byteLength": 391548,
      "name": "floatBufferViews",
      "target": 34963
    },
    {
      "buffer": 0,
      "byteLength": 307608,
      "byteOffset": 391548,
      "byteStride": 8,
      "name": "floatBufferViews",
      "target": 34962
    },
    {
      "buffer": 0,
      "byteLength": 922824,
      "byteOffset": 699156,
      "byteStride": 12,
      "name": "floatBufferViews",
      "target": 34962
    },
    {
      "buffer": 0,
      "byteLength": 615216,
      "byteOffset": 1621980,
      "byteStride": 16,
      "name": "floatBufferViews",
      "target": 34962
    }
  ],
  "buffers": [
    {
      "byteLength": 2237196,
      "uri": "scene.bin"
    }
  ],
  "images": [
    {
      "uri": "textures/accentMAT_baseColor.jpeg"
    },
    {
      "uri": "textures/accentMAT_metallicRoughness.png"
    },
    {
      "uri": "textures/accentMAT_normal.png"
    },
    {
      "uri": "textures/Default_Material_baseColor.jpeg"
    },
    {
      "uri": "textures/Default_Material_metallicRoughness.png"
    },
    {
      "uri": "textures/Default_Material_normal.png"
    },
    {
      "uri": "textures/railMAT_baseColor.jpeg"
    },
    {
      "uri": "textures/railMAT_metallicRoughness.png"
    },
    {
      "uri": "textures/railMAT_normal.png"
    },
    {
      "uri": "textures/mainMAT_baseColor.jpeg"
    },
    {
      "uri": "textures/mainMAT_metallicRoughness.png"
    },
    {
      "uri": "textures/mainMAT_normal.png"
    },
    {
      "uri": "textures/gymMAT_baseColor.jpeg"
    },
    {
      "uri": "textures/gymMAT_metallicRoughness.png"
    },
    {
      "uri": "textures/gymMAT_normal.png"
    },
    {
      "uri": "textures/extensionMAT_baseColor.jpeg"
    },
    {
      "uri": "textures/extensionMAT_metallicRoughness.png"
    },
    {
      "uri": "textures/extensionMAT_normal.png"
    }
  ],
  "materials": [
    {
      "doubleSided": true,
      "name": "accentMAT",
      "normalTexture": {
        "index": 2
      },
      "pbrMetallicRoughness": {
        "baseColorTexture": {
          "index": 0
        },
        "metallicRoughnessTexture": {
          "index": 1
        }
      }
    },
    {
      "doubleSided": true,
      "name": "Default_Material",
      "normalTexture": {
        "index": 5
      },
      "pbrMetallicRoughness": {
        "baseColorTexture": {
          "index": 3
        },
        "metallicRoughnessTexture": {
          "index": 4
        }
      }
    },
    {
      "doubleSided": true,
      "name": "railMAT",
      "normalTexture": {
        "index": 8
      },
      "occlusionTexture": {
        "index": 7
      },
      "pbrMetallicRoughness": {
        "baseColorTexture": {
          "index": 6
        },
        "metallicRoughnessTexture": {
          "index": 7
        }
      }
    },
    {
      "doubleSided": true,
      "name": "mainMAT",
      "normalTexture": {
        "index": 11
      },
      "pbrMetallicRoughness": {
        "baseColorTexture": {
          "index": 9
        },
        "metallicRoughnessTexture": {
          "index": 10
        }
      }
    },
    {
      "doubleSided": true,
      "name": "gymMAT",
      "normalTexture": {
        "index": 14
      },
      "pbrMetallicRoughness": {
        "baseColorTexture": {
          "index": 12
        },
        "metallicRoughnessTexture": {
          "index": 13
        }
      }
    },
    {
      "doubleSided": true,
      "name": "extensionMAT",
      "normalTexture": {
        "index": 17
      },
      "pbrMetallicRoughness": {
        "baseColorTexture": {
          "index": 15
        },
        "metallicRoughnessTexture": {
          "index": 16
        }
      }
    }
  ],
  "meshes": [
    {
      "name": "defaultMaterial",
      "primitives": [
        {
          "attributes": {
            "NORMAL": 1,
            "POSITION": 0,
            "TANGENT": 2,
            "TEXCOORD_0": 3
          },
          "indices": 4,
          "material": 2,
          "mode": 4
        }
      ]
    },
    {
      "name": "defaultMaterial",
      "primitives": [
        {
          "attributes": {
            "NORMAL": 6,
            "POSITION": 5,
            "TANGENT": 7,
            "TEXCOORD_0": 8
          },
          "indices": 9,
          "material": 5,
          "mode": 4
        }
      ]
    },
    {
      "name": "defaultMaterial",
      "primitives": [
        {
          "attributes": {
            "NORMAL": 11,
            "POSITION": 10,
            "TANGENT": 12,
            "TEXCOORD_0": 13
          },
          "indices": 14,
          "material": 3,
          "mode": 4
        }
      ]
    },
    {
      "name": "defaultMaterial",
      "primitives": [
        {
          "attributes": {
            "NORMAL": 16,
            "POSITION": 15,
            "TANGENT": 17,
            "TEXCOORD_0": 18
          },
          "indices": 19,
          "material": 4,
          "mode": 4
        }
      ]
    },
    {
      "name": "defaultMaterial",
      "primitives": [
        {
          "attributes": {
            "NORMAL": 21,
            "POSITION": 20,
            "TANGENT": 22,
            "TEXCOORD_0": 23
          },
          "indices": 24,
          "material": 0,
          "mode": 4
        }
      ]
    },
    {
      "name": "defaultMaterial",
      "primitives": [
        {
          "attributes": {
            "NORMAL": 26,
            "POSITION": 25,
            "TANGENT": 27,
            "TEXCOORD_0": 28
          },
          "indices": 29,
          "material": 3,
          "mode": 4
        }
      ]
    },
    {
      "name": "defaultMaterial",
      "primitives": [
        {
          "attributes": {
            "NORMAL": 31,
            "POSITION": 30,
            "TANGENT": 32,
            "TEXCOORD_0": 33
          },
          "indices": 34,
          "material": 3,
          "mode": 4
        }
      ]
    },
    {
      "name": "defaultMaterial",
      "primitives": [
        {
          "attributes": {
            "NORMAL": 36,
            "POSITION": 35,
            "TANGENT": 37,
            "TEXCOORD_0": 38
          },
          "indices": 39,
          "material": 3,
          "mode": 4
        }
      ]
    },
    {
      "name": "defaultMaterial",
      "primitives": [
        {
          "attributes": {
            "NORMAL": 41,
            "POSITION": 40,
            "TANGENT": 42,
            "TEXCOORD_0": 43
          },
          "indices": 44,
          "material": 2,
          "mode": 4
        }
      ]
    },
    {
      "name": "defaultMaterial",
      "primitives": [
        {
          "attributes": {
            "NORMAL": 46,
            "POSITION": 45,
            "TANGENT": 47,
            "TEXCOORD_0": 48
          },
          "indices": 49,
          "material": 1,
          "mode": 4
        }
      ]
    },
    {
      "name": "defaultMaterial",
      "primitives": [
        {
          "attributes": {
            "NORMAL": 51,
            "POSITION": 50,
            "TANGENT": 52,
            "TEXCOORD_0": 53
          },
          "indices": 54,
          "material": 0,
          "mode": 4
        }
      ]
    },
    {
      "name": "defaultMaterial",
      "primitives": [
        {
          "attributes": {
            "NORMAL": 56,
            "POSITION": 55,
            "TANGENT": 57,
            "TEXCOORD_0": 58
          },
          "indices": 59,
          "material": 0,
          "mode": 4
        }
      ]
    }
  ],
  "nodes": [
    {
      "children": [
        1
      ],
      "matrix": [
        1.0,
        0.0,
        0.0,
        0.0,
        0.0,
        2.220446049250313e-16,
        -1.0,
        0.0,
        0.0,
        1.0,
        2.220446049250313e-16,
        0.0,
        0.0,
        0.0,
        0.0,
        1.0
      ],
      "name": "Sketchfab_model"
    },
    {
      "children": [
        2,
        4,
        6,
        8,
        10,
        12,
        14,
        16,
        18,
        20,
        22,
        24
      ],
      "matrix": [
        1.0,
        0.0,
        0.0,
        0.0,
        0.0,
        -4.371139006309477e-08,
        0.999999999999999,
        0.0,
        0.0,
        -0.999999999999999,
        -4.371139006309477e-08,
        0.0,
        0.0,
        0.0,
        0.0,
        1.0
      ],
      "name": "Collada visual scene group"
    },
    {
      "children": [
        3
      ],
      "name": "rails"
    },
    {
      "mesh": 0,
      "name": "defaultMaterial"
    },
    {
      "children": [
        5
      ],
      "name": "extensionBuilding_low"
    },
    {
      "mesh": 1,
      "name": "defaultMaterial"
    },
    {
      "children": [
        7
      ],
      "name": "base_low"
    },
    {
      "mesh": 2,
      "name": "defaultMaterial"
    },
    {
      "children": [
        9
      ],
      "name": "gym_low"
    },
    {
      "mesh": 3,
      "name": "defaultMaterial"
    },
    {
      "children": [
        11
      ],
      "name": "columns_low"
    },
    {
      "mesh": 4,
      "name": "defaultMaterial"
    },
    {
      "children": [
        13
      ],
      "name": "secondFloor_low"
    },
    {
      "mesh": 5,
      "name": "defaultMaterial"
    },
    {
      "children": [
        15
      ],
      "name": "thirdFloor_low"
    },
    {
      "mesh": 6,
      "name": "defaultMaterial"
    },
    {
      "children": [
        17
      ],
      "name": "roof_low"
    },
    {
      "mesh": 7,
      "name": "defaultMaterial"
    },
    {
      "children": [
        19
      ],
      "name": "sign"
    },
    {
      "mesh": 8,
      "name": "defaultMaterial"
    },
    {
      "children": [
        21
      ],
      "name": "debrisPile"
    },
    {
      "mesh": 9,
      "name": "defaultMaterial"
    },
    {
      "children": [
        23
      ],
      "name": "debrisPile1"
    },
    {
      "mesh": 10,
      "name": "defaultMaterial"
    },
    {
      "children": [
        25
      ],
      "name": "gymRailPlane"
    },
    {
      "mesh": 11,
      "name": "defaultMaterial"
    }
  ],
  "samplers": [
    {
      "magFilter": 9729,
      "minFilter": 9987,
      "wrapS": 10497,
      "wrapT": 10497
    }
  ],
  "scene": 0,
  "scenes": [
    {
      "name": "Sketchfab_Scene",
      "nodes": [
        0
      ]
    }
  ],
  "textures": [
    {
      "sampler": 0,
      "source": 0
    },
    {
      "sampler": 0,
      "source": 1
    },
    {
      "sampler": 0,
      "source": 2
    },
    {
      "sampler": 0,
      "source": 3
    },
    {
      "sampler": 0,
      "source": 4
    },
    {
      "sampler": 0,
      "source": 5
    },
    {
      "sampler": 0,
      "source": 6
    },
    {
      "sampler": 0,
      "source": 7
    },
    {
      "sampler": 0,
      "source": 8
    },
    {
      "sampler": 0,
      "source": 9
    },
    {
      "sampler": 0,
      "source": 10
    },
    {
      "sampler": 0,
      "source": 11
    },
    {
      "sampler": 0,
      "source": 12
    },
    {
      "sampler": 0,
      "source": 13
    },
    {
      "sampler": 0,
      "source": 14
    },
    {
      "sampler": 0,
      "source": 15
    },
    {
      "sampler": 0,
      "source": 16
    },
    {
      "sampler": 0,
      "source": 17
    }
  ]
}
